<svg width="600" height="527" viewBox="0 0 600 527" fill="none" xmlns="http://www.w3.org/2000/svg">
<path d="M5.5 509L23.5 519.5H581.5L594 457C594 457 606.5 367 581.5 354.5C556.5 342 567.5 366.5 545.5 342C523.5 317.5 522.5 312.5 535 273.5C547.5 234.5 551.5 188.5 535 164C518.5 139.5 459 110.5 416.5 110.5C374 110.5 342.5 211.5 370 198.5C397.5 185.5 444 177.5 427 257.5C410 337.5 427 315 393 342C359 369 357 363.5 335.5 342C314 320.5 335.5 273.5 301.5 286.5C267.5 299.5 262 273.5 230 286.5C198 299.5 190.5 342 167 326C143.5 310 143.5 260.5 108 273.5C72.5 286.5 41.5 333 23.5 342C5.5 351 5.5 394 5.5 394V509Z" fill="#327F9B"/>
<path d="M79 56.5C74 76.5 70.5 99.5 79 110.5C87.5 121.5 108 128.5 108 128.5C108 128.5 146 128.5 156.5 110.5C167 92.5 167 91.5 167 76.5C167 61.5 165 50 156.5 35C148 20 121.5 17 108 26C94.5 35 84 36.5 79 56.5Z" fill="#327F9B"/>
<path d="M230 92.5C240 117 251.5 128.5 251.5 128.5C251.5 128.5 253 138 280 139C307 140 318 92.5 318 92.5C318 92.5 335.5 61.5 318 35C300.5 8.5 301.5 2.5 280 2.5C258.5 2.5 238 36.5 230 56.5C222 76.5 220 68 230 92.5Z" fill="#327F9B"/>
<path d="M179.5 232.5C179.5 232.5 172 245.5 179.5 257.5C187 269.5 201 257.5 201 257.5C201 257.5 213.5 247 212 232.5C210.5 218 201 219 190.5 223.5C180 228 179.5 232.5 179.5 232.5Z" fill="#327F9B"/>
<path d="M335.5 247C335.5 247 365.5 268 370 257.5C374.5 247 370 223.5 370 223.5C370 223.5 362.414 198.5 344.5 198.5C326.586 198.5 318 223.5 318 223.5L335.5 247Z" fill="#327F9B"/>
<path d="M5.5 509L23.5 519.5H581.5L594 457C594 457 606.5 367 581.5 354.5C556.5 342 567.5 366.5 545.5 342C523.5 317.5 522.5 312.5 535 273.5C547.5 234.5 551.5 188.5 535 164C518.5 139.5 459 110.5 416.5 110.5C374 110.5 342.5 211.5 370 198.5C397.5 185.5 444 177.5 427 257.5C410 337.5 427 315 393 342C359 369 357 363.5 335.5 342C314 320.5 335.5 273.5 301.5 286.5C267.5 299.5 262 273.5 230 286.5C198 299.5 190.5 342 167 326C143.5 310 143.5 260.5 108 273.5C72.5 286.5 41.5 333 23.5 342C5.5 351 5.5 394 5.5 394V509Z" stroke="#327F9B" stroke-width="5"/>
<path d="M79 56.5C74 76.5 70.5 99.5 79 110.5C87.5 121.5 108 128.5 108 128.5C108 128.5 146 128.5 156.5 110.5C167 92.5 167 91.5 167 76.5C167 61.5 165 50 156.5 35C148 20 121.5 17 108 26C94.5 35 84 36.5 79 56.5Z" stroke="#327F9B" stroke-width="5"/>
<path d="M230 92.5C240 117 251.5 128.5 251.5 128.5C251.5 128.5 253 138 280 139C307 140 318 92.5 318 92.5C318 92.5 335.5 61.5 318 35C300.5 8.5 301.5 2.5 280 2.5C258.5 2.5 238 36.5 230 56.5C222 76.5 220 68 230 92.5Z" stroke="#327F9B" stroke-width="5"/>
<path d="M179.5 232.5C179.5 232.5 172 245.5 179.5 257.5C187 269.5 201 257.5 201 257.5C201 257.5 213.5 247 212 232.5C210.5 218 201 219 190.5 223.5C180 228 179.5 232.5 179.5 232.5Z" stroke="#327F9B" stroke-width="5"/>
<path d="M335.5 247C335.5 247 365.5 268 370 257.5C374.5 247 370 223.5 370 223.5C370 223.5 362.414 198.5 344.5 198.5C326.586 198.5 318 223.5 318 223.5L335.5 247Z" stroke="#327F9B" stroke-width="5"/>
<path d="M402.5 133.5C386 141.5 376.5 155.5 389.5 165.5C402.5 175.5 420 139.5 428 159.5C436 179.5 481.5 172.5 481.5 159.5C481.5 146.5 441 126.5 428 125.5C415 124.5 419 125.5 402.5 133.5Z" fill="#1DA4D5"/>
<path d="M481.5 352C461.5 371 433 434 433 434C433 434 424 432 436 438C448 444 466 434 466 434C466 434 491.5 384.5 515.5 363.5C539.5 342.5 501.5 317 521.5 282.5C541.5 248 483.472 214 515.5 196C547.528 178 481.5 165.5 481.5 196C481.5 226.5 501.5 261.5 501.5 261.5C501.5 261.5 501.5 333 481.5 352Z" fill="#1DA4D5"/>
<path d="M306 312C321 317 306 340 306 340C306 340 250.5 352 250.5 333C250.5 314 212 317 212 317C212 317 232.5 296.5 245.5 296.5C258.5 296.5 267.5 297 276.5 312C285.5 327 291 307 306 312Z" fill="#1DA4D5"/>
<path d="M111 296.5C134.5 307 185 342 134.5 327C84 312 51.4998 355.5 92.9998 370.5C134.5 385.5 63.4998 406.5 63.4998 406.5C63.4998 406.5 33.4998 380 45.4998 363.5C57.4998 347 41.9997 363 63.4998 333C85 303 87.4998 286 111 296.5Z" fill="#1DA4D5"/>
<path d="M234 370.5C198.5 346.5 161.5 406.5 161.5 406.5L150.5 417C150.5 417 196 406 204 425C212 444 231.5 402.5 250.5 438C269.5 473.5 293.5 471.5 316 444C338.5 416.5 382.5 386.5 354.5 399.5C326.5 412.5 321 417 285.5 399.5C250 382 269.5 394.5 234 370.5Z" fill="#1DA4D5"/>
<path d="M134.5 78C142.5 89.5 102 105 102 105C102 105 142.5 133.5 150.5 105C158.5 76.5 150.5 66.5 150.5 66.5L126.5 32.5C126.5 32.5 126.5 66.5 134.5 78Z" fill="#1DA4D5"/>
<path d="M276.5 61.5C259.5 76.5 258.5 105 258.5 105C258.5 105 276.5 133.5 293.5 115C310.5 96.5 306 83.5 311 66.5C316 49.5 285.5 17.5 285.5 17.5C285.5 17.5 293.5 46.5 276.5 61.5Z" fill="#1DA4D5"/>
<path d="M354.5 236.952C353.627 234.209 351.175 230.225 345 225C332 214 345 206 345 206L354.5 214V236.952C355.464 239.984 354.5 241.5 354.5 241.5V236.952Z" fill="#1DA4D5"/>
<path d="M184 250.5C184 250.5 191.744 236.395 198.181 235.954C195.025 230.546 192 225 192 225H204L212 241.5L204.789 243.818C205.787 247.068 204.969 246.553 203.356 244.278L184 250.5Z" fill="#1DA4D5"/>
<path d="M389.5 165.5C376.5 155.5 386 141.5 402.5 133.5C419 125.5 415 124.5 428 125.5C441 126.5 481.5 146.5 481.5 159.5C481.5 172.5 436 179.5 428 159.5C420 139.5 402.5 175.5 389.5 165.5ZM433 434C433 434 461.5 371 481.5 352C501.5 333 501.5 261.5 501.5 261.5C501.5 261.5 481.5 226.5 481.5 196C481.5 165.5 547.528 178 515.5 196C483.472 214 541.5 248 521.5 282.5C501.5 317 539.5 342.5 515.5 363.5C491.5 384.5 466 434 466 434C466 434 448 444 436 438C424 432 433 434 433 434ZM306 340C306 340 321 317 306 312C291 307 285.5 327 276.5 312C267.5 297 258.5 296.5 245.5 296.5C232.5 296.5 212 317 212 317C212 317 250.5 314 250.5 333C250.5 352 306 340 306 340ZM134.5 327C185 342 134.5 307 111 296.5C87.4998 286 85 303 63.4998 333C41.9997 363 57.4998 347 45.4998 363.5C33.4998 380 63.4998 406.5 63.4998 406.5C63.4998 406.5 134.5 385.5 92.9998 370.5C51.4998 355.5 84 312 134.5 327ZM161.5 406.5C161.5 406.5 198.5 346.5 234 370.5C269.5 394.5 250 382 285.5 399.5C321 417 326.5 412.5 354.5 399.5C382.5 386.5 338.5 416.5 316 444C293.5 471.5 269.5 473.5 250.5 438C231.5 402.5 212 444 204 425C196 406 150.5 417 150.5 417L161.5 406.5ZM102 105C102 105 142.5 89.5 134.5 78C126.5 66.5 126.5 32.5 126.5 32.5L150.5 66.5C150.5 66.5 158.5 76.5 150.5 105C142.5 133.5 102 105 102 105ZM258.5 105C258.5 105 259.5 76.5 276.5 61.5C293.5 46.5 285.5 17.5 285.5 17.5C285.5 17.5 316 49.5 311 66.5C306 83.5 310.5 96.5 293.5 115C276.5 133.5 258.5 105 258.5 105ZM345 225C358 236 354.5 241.5 354.5 241.5V214L345 206C345 206 332 214 345 225ZM184 250.5C184 250.5 198 225 204 241.5C210 258 192 225 192 225H204L212 241.5L184 250.5Z" stroke="#1DA4D5" stroke-width="5"/>
<path d="M275.5 90C275.5 103 255.5 103 255.5 103C255.5 103 286 121 296 109C306 97 287.5 64.5 287.5 64.5C287.5 64.5 275.5 77 275.5 90Z" fill="#91C7DB" fill-opacity="0.93"/>
<path d="M128.5 90C117.5 96 102 103 102 103C102 103 130.5 127 139.5 118C148.5 109 139.5 84 128.5 90Z" fill="#91C7DB" fill-opacity="0.93"/>
<path d="M203 245.5C203 245.5 197.5 239.5 189 245.5C180.5 251.5 194 259.5 194 259.5L203 245.5Z" fill="#91C7DB" fill-opacity="0.93"/>
<path d="M360.5 230C352.5 223 337 216 337 230C337 244 354.5 251.5 354.5 251.5C354.5 251.5 368.5 237 360.5 230Z" fill="#91C7DB" fill-opacity="0.93"/>
<path d="M424 145.5C397 146.5 378.5 166.5 378.5 166.5C378.5 166.5 384 170.5 409 175.5C434 180.5 434 200 434 200C434 200 442 267.5 451 259.5C460 251.5 461.5 217.5 467.5 200C473.5 182.5 451 144.5 424 145.5Z" fill="#91C7DB" fill-opacity="0.93"/>
<path d="M441 338C458 363 431 406.5 441 406.5C451 406.5 470.5 352 484.5 345C498.5 338 467.5 313 467.5 313C467.5 313 467.5 267.5 451 280.5C434.5 293.5 434 294.5 434 294.5C434 294.5 424 313 441 338Z" fill="#91C7DB" fill-opacity="0.93"/>
<path d="M275.5 406.5C296 406.5 337 381.5 337 381.5C337 381.5 295.5 403.5 275.5 381.5C255.5 359.5 203 352 203 352L217 381.5C217 381.5 255 406.5 275.5 406.5Z" fill="#91C7DB" fill-opacity="0.93"/>
<path d="M255.5 302C255.5 302 282.5 338 296 338C309.5 338 313 294.5 313 294.5C313 294.5 309.5 308 296 308C282.5 308 255.5 302 255.5 302Z" fill="#91C7DB" fill-opacity="0.93"/>
<path d="M368.5 399.5C370.5 424 424 457 424 457C424 457 409 365.5 387.5 371.5C366 377.5 366.5 375 368.5 399.5Z" fill="#91C7DB" fill-opacity="0.93"/>
<path d="M563 371.5C563 371.5 523 432 543 441C563 450 580 441 580 441C580 441 563 416 580 399.5C597 383 563 371.5 563 371.5Z" fill="#91C7DB" fill-opacity="0.93"/>
<path d="M74.9998 381.5C84.4998 404.5 102 416 102 416C102 416 139.5 363 139.5 338C139.5 313 102 308 102 308C102 308 65.4998 358.5 74.9998 381.5Z" fill="#91C7DB" fill-opacity="0.93"/>
<path d="M275.5 90C275.5 103 255.5 103 255.5 103C255.5 103 286 121 296 109C306 97 287.5 64.5 287.5 64.5C287.5 64.5 275.5 77 275.5 90Z" stroke="#91C7DB" stroke-opacity="0.93" stroke-width="5"/>
<path d="M128.5 90C117.5 96 102 103 102 103C102 103 130.5 127 139.5 118C148.5 109 139.5 84 128.5 90Z" stroke="#91C7DB" stroke-opacity="0.93" stroke-width="5"/>
<path d="M203 245.5C203 245.5 197.5 239.5 189 245.5C180.5 251.5 194 259.5 194 259.5L203 245.5Z" stroke="#91C7DB" stroke-opacity="0.93" stroke-width="5"/>
<path d="M360.5 230C352.5 223 337 216 337 230C337 244 354.5 251.5 354.5 251.5C354.5 251.5 368.5 237 360.5 230Z" stroke="#91C7DB" stroke-opacity="0.93" stroke-width="5"/>
<path d="M424 145.5C397 146.5 378.5 166.5 378.5 166.5C378.5 166.5 384 170.5 409 175.5C434 180.5 434 200 434 200C434 200 442 267.5 451 259.5C460 251.5 461.5 217.5 467.5 200C473.5 182.5 451 144.5 424 145.5Z" stroke="#91C7DB" stroke-opacity="0.93" stroke-width="5"/>
<path d="M441 338C458 363 431 406.5 441 406.5C451 406.5 470.5 352 484.5 345C498.5 338 467.5 313 467.5 313C467.5 313 467.5 267.5 451 280.5C434.5 293.5 434 294.5 434 294.5C434 294.5 424 313 441 338Z" stroke="#91C7DB" stroke-opacity="0.93" stroke-width="5"/>
<path d="M275.5 406.5C296 406.5 337 381.5 337 381.5C337 381.5 295.5 403.5 275.5 381.5C255.5 359.5 203 352 203 352L217 381.5C217 381.5 255 406.5 275.5 406.5Z" stroke="#91C7DB" stroke-opacity="0.93" stroke-width="5"/>
<path d="M255.5 302C255.5 302 282.5 338 296 338C309.5 338 313 294.5 313 294.5C313 294.5 309.5 308 296 308C282.5 308 255.5 302 255.5 302Z" stroke="#91C7DB" stroke-opacity="0.93" stroke-width="5"/>
<path d="M368.5 399.5C370.5 424 424 457 424 457C424 457 409 365.5 387.5 371.5C366 377.5 366.5 375 368.5 399.5Z" stroke="#91C7DB" stroke-opacity="0.93" stroke-width="5"/>
<path d="M563 371.5C563 371.5 523 432 543 441C563 450 580 441 580 441C580 441 563 416 580 399.5C597 383 563 371.5 563 371.5Z" stroke="#91C7DB" stroke-opacity="0.93" stroke-width="5"/>
<path d="M74.9998 381.5C84.4998 404.5 102 416 102 416C102 416 139.5 363 139.5 338C139.5 313 102 308 102 308C102 308 65.4998 358.5 74.9998 381.5Z" stroke="#91C7DB" stroke-opacity="0.93" stroke-width="5"/>
<path d="M70 443C38 445 3 473 3 473L6 519L582 523.5C582 523.5 608 482 592.5 473C577 464 546.5 479.5 518 473C489.5 466.5 538 422 518 410.5C498 399 482.5 478.5 459.5 487C436.5 495.5 409.5 465 375 465C340.5 465 358.5 497 321.5 497C284.5 497 249.5 465 219.5 465C189.5 465 182.5 497 149.5 497C116.5 497 102 441 70 443Z" fill="#004C67" fill-opacity="0.93"/>
<path d="M119.5 403C103 425 136 443 136 443C136 443 150 447 159.5 425C169 403 159.5 371.5 159.5 371.5C159.5 371.5 136 381 119.5 403Z" fill="#004C67" fill-opacity="0.93"/>
<path d="M366.5 371.5C366.5 371.5 333.5 403 347.5 425C361.5 447 346 425 375 425C404 425 366.5 371.5 366.5 371.5Z" fill="#004C67" fill-opacity="0.93"/>
<path d="M476 272C461 287.5 476 316 476 316C476 316 451 346.5 476 348C476 348 510.5 316 491 296.5C471.5 277 491 256.5 476 272Z" fill="#004C67" fill-opacity="0.93"/>
<path d="M571.5 403C550.5 410 556 465 556 465C556 465 592.5 473 590.5 436.5C588.5 400 592.5 396 571.5 403Z" fill="#004C67" fill-opacity="0.93"/>
<path d="M259 24.5C241 23 235.5 56 235.5 56C235.5 56 234 73 259 64.5C284 56 277 26 259 24.5Z" fill="#004C67" fill-opacity="0.93"/>
<path d="M86 45C65 65.5 86 78.5 86 78.5C86 78.5 112.5 84 119.5 64.5C126.5 45 107 24.5 86 45Z" fill="#004C67" fill-opacity="0.93"/>
<path d="M476 356V348M476 348C451 346.5 476 316 476 316C476 316 461 287.5 476 272C491 256.5 471.5 277 491 296.5C510.5 316 476 348 476 348ZM3 473C3 473 38 445 70 443C102 441 116.5 497 149.5 497C182.5 497 189.5 465 219.5 465C249.5 465 284.5 497 321.5 497C358.5 497 340.5 465 375 465C409.5 465 436.5 495.5 459.5 487C482.5 478.5 498 399 518 410.5C538 422 489.5 466.5 518 473C546.5 479.5 577 464 592.5 473C608 482 582 523.5 582 523.5L6 519L3 473ZM136 443C136 443 103 425 119.5 403C136 381 159.5 371.5 159.5 371.5C159.5 371.5 169 403 159.5 425C150 447 136 443 136 443ZM347.5 425C333.5 403 366.5 371.5 366.5 371.5C366.5 371.5 404 425 375 425C346 425 361.5 447 347.5 425ZM556 465C556 465 550.5 410 571.5 403C592.5 396 588.5 400 590.5 436.5C592.5 473 556 465 556 465ZM235.5 56C235.5 56 241 23 259 24.5C277 26 284 56 259 64.5C234 73 235.5 56 235.5 56ZM86 78.5C86 78.5 65 65.5 86 45C107 24.5 126.5 45 119.5 64.5C112.5 84 86 78.5 86 78.5Z" stroke="#004C67" stroke-opacity="0.93" stroke-width="5"/>
</svg>
