<svg width="594" height="568" viewBox="0 0 594 568" fill="none" xmlns="http://www.w3.org/2000/svg">
<g filter="url(#filter0_d_2_149)">
<path d="M98.5 328.5L6.5 470V557H587L567 373.5H532L465.5 415.5V71L177.5 415.5L98.5 328.5Z" fill="#5A330E"/>
<path d="M177.5 100.5L128 239.5L150.5 309L205 294L262 140.5L220 71L177.5 100.5Z" fill="#5A330E"/>
<path d="M552 6.5L502.5 71V120.5H552L567 100.5L552 6.5Z" fill="#5A330E"/>
<path d="M532 239.5L490 274L498.028 309H552L532 239.5Z" fill="#5A330E"/>
<path d="M98.5 328.5L6.5 470V557H587L567 373.5H532L465.5 415.5V71L177.5 415.5L98.5 328.5Z" stroke="#553A21" stroke-width="5"/>
<path d="M177.5 100.5L128 239.5L150.5 309L205 294L262 140.5L220 71L177.5 100.5Z" stroke="#553A21" stroke-width="5"/>
<path d="M552 6.5L502.5 71V120.5H552L567 100.5L552 6.5Z" stroke="#553A21" stroke-width="5"/>
<path d="M532 239.5L490 274L498.028 309H552L532 239.5Z" stroke="#553A21" stroke-width="5"/>
</g>
<defs>
<filter id="filter0_d_2_149" x="0" y="0.369568" width="593.787" height="567.13" filterUnits="userSpaceOnUse" color-interpolation-filters="sRGB">
<feFlood flood-opacity="0" result="BackgroundImageFix"/>
<feColorMatrix in="SourceAlpha" type="matrix" values="0 0 0 0 0 0 0 0 0 0 0 0 0 0 0 0 0 0 127 0" result="hardAlpha"/>
<feOffset dy="4"/>
<feGaussianBlur stdDeviation="2"/>
<feComposite in2="hardAlpha" operator="out"/>
<feColorMatrix type="matrix" values="0 0 0 0 0 0 0 0 0 0 0 0 0 0 0 0 0 0 0.25 0"/>
<feBlend mode="normal" in2="BackgroundImageFix" result="effect1_dropShadow_2_149"/>
<feBlend mode="normal" in="SourceGraphic" in2="effect1_dropShadow_2_149" result="shape"/>
</filter>
</defs>
</svg>
