<svg width="513" height="562" viewBox="0 0 513 562" fill="none" xmlns="http://www.w3.org/2000/svg">
<path d="M3.50039 424.5C-3.69961 482.9 138.833 499.833 158.999 530.5C173.166 495.833 116.5 505.652 88 424.5C76.8468 392.742 37.8333 372.333 22 330.5C7.83333 355.667 10.7004 366.1 3.50039 424.5Z" fill="#005709" stroke="#005709" stroke-width="5"/>
<path d="M39.375 361.7C30.1698 452.22 193.255 477.967 219.038 525.5C237.15 471.767 183.844 487.485 147.407 361.7C133.148 312.475 83.2693 280.842 63.0266 216C44.9146 255.008 48.5801 271.18 39.375 361.7Z" fill="#00710B" stroke="#00710B" stroke-width="5"/>
<path d="M93.3435 309.27C83.9561 438.042 211.706 481.88 238 549.5C256.47 473.06 240.673 488.209 203.515 309.27C188.973 239.244 138.107 194.242 117.463 102C98.9929 157.492 102.731 180.498 93.3435 309.27Z" fill="#008C0E" stroke="#008C0E" stroke-width="5"/>
<path d="M421.041 452.5C415.987 493.5 349.637 512.833 369.804 543.5C383.97 508.833 459.541 543.5 498.041 469C513.494 439.097 513.874 351.833 498.041 310C483.874 335.167 428.241 394.1 421.041 452.5Z" fill="#005709" stroke="#005709" stroke-width="5"/>
<path d="M361.761 417.981C355.538 468.902 273.856 492.913 298.683 531C316.123 487.945 409.158 531 456.556 438.473C475.58 401.335 476.048 292.956 456.556 241C439.115 272.256 370.625 345.45 361.761 417.981Z" fill="#00710B" stroke="#00710B" stroke-width="5"/>
<path d="M302.417 368.486C295.491 441.707 274.785 500.233 302.418 555C321.829 493.09 355.17 531 407.923 397.953C429.096 344.551 429.618 188.709 407.923 114C388.511 158.944 312.282 264.191 302.417 368.486Z" fill="#008C0E" stroke="#008C0E" stroke-width="5"/>
<path d="M185 331C185 377 240 496.5 267.5 550.5C284 550.5 363.5 380.5 363.5 331C363.5 281.5 363.5 144.5 341.5 103.5C319.5 62.5 291.333 33.1667 267.5 5C256.5 21.3333 215.743 60.2617 196 103.5C159.054 184.412 185 273.5 185 331Z" fill="#00AA11" stroke="#00AA11" stroke-width="5"/>
<path d="M267.5 435.5V540L259 435.5L189.5 339.5L267.5 417.5V339.5L189.5 264L267.5 316.5V239.5L198.5 150.5L267.5 212.5V143.5L233.5 63L267.5 122L304.5 63L278.5 122L267.5 143.5V212.5L331 150.5L267.5 239.5V316.5L340 264L267.5 339.5V417.5L340 339.5L267.5 435.5Z" fill="#008C0E"/>
<path d="M267.5 417.5L340 339.5L267.5 435.5V540L259 435.5L189.5 339.5L267.5 417.5ZM267.5 417.5V339.5M267.5 339.5L189.5 264L267.5 316.5M267.5 339.5L340 264L267.5 316.5M267.5 316.5V239.5M267.5 239.5L198.5 150.5L267.5 212.5M267.5 239.5L331 150.5L267.5 212.5M267.5 212.5V143.5M267.5 143.5L233.5 63L267.5 122L304.5 63L278.5 122L267.5 143.5Z" stroke="#008C0E" stroke-width="5"/>
</svg>
