<svg width="578" height="379" viewBox="0 0 578 379" fill="none" xmlns="http://www.w3.org/2000/svg">
<path d="M1 378L35.1581 217L59.2698 248.5L139.642 2L184.516 217L278.284 165L307.084 276.5L577 145V378H1Z" fill="#7CCBED" stroke="#7CCBED"/>
<path d="M136.5 75.5L80.5 268.5L136.5 248.5V75.5Z" fill="#327F9B"/>
<path d="M259.5 193L198 268.5H208L259.5 248.5V193Z" fill="#327F9B"/>
<path d="M562 177L343.5 284.5L528.5 248.5L562 177Z" fill="#327F9B"/>
<path d="M417 316L544.5 378H13L46.5 268.5L170 340L259.5 316L371 340L417 316Z" fill="#327F9B"/>
<path d="M136.5 75.5L80.5 268.5L136.5 248.5V75.5Z" stroke="#004C67" stroke-opacity="0.93"/>
<path d="M259.5 193L198 268.5H208L259.5 248.5V193Z" stroke="#004C67" stroke-opacity="0.93"/>
<path d="M562 177L343.5 284.5L528.5 248.5L562 177Z" stroke="#004C67" stroke-opacity="0.93"/>
<path d="M417 316L544.5 378H13L46.5 268.5L170 340L259.5 316L371 340L417 316Z" stroke="#004C67" stroke-opacity="0.93"/>
<path d="M140.5 8L158 248.5L173 261.5L188 232.5L140.5 8Z" fill="white"/>
<path d="M271.5 197V290.5H309.5L271.5 197Z" fill="white"/>
<path d="M560 197L502.5 312.5H560V197Z" fill="white"/>
<path d="M42.5 261.5L102.5 342H173L198 312.5L42.5 261.5Z" fill="white"/>
<path d="M228 302.5L271.5 342H335.5L228 302.5Z" fill="white"/>
<path d="M433 280.5L401 342L450.5 324L433 280.5Z" fill="white"/>
<path d="M158 290.5L173 261.5M173 261.5L188 232.5L140.5 8L158 248.5L173 261.5ZM271.5 290.5V197L309.5 290.5H271.5ZM502.5 312.5L560 197V312.5H502.5ZM102.5 342L42.5 261.5L198 312.5L173 342H102.5ZM271.5 342L228 302.5L335.5 342H271.5ZM401 342L433 280.5L450.5 324L401 342Z" stroke="#004C67" stroke-opacity="0.93"/>
</svg>
