<svg width="549" height="534" viewBox="0 0 549 534" fill="none" xmlns="http://www.w3.org/2000/svg">
<path d="M2.5 502L27 388L66 317.5C66 317.5 95 286 112 261.5V203.5C112 203.5 80.5 145 66 133C51.5 121 80 72.9999 80.5 55.4999C81 37.9999 141 16.4999 141 16.4999C141 16.4999 71.8869 84.4999 141 55.4999C210.113 26.4999 143.5 78.9999 112 101.5C80.5 124 148.5 145 148.5 145C148.5 145 192 197.5 175 203.5C158 209.5 188 281 175 305C162 329 194.5 344 194.5 344C194.5 344 336.5 323.5 265 220.5C193.5 117.5 226 167 226 167C226 167 180.5 129 265 101.5C278.887 96.9806 288.209 93.4132 294.092 90.8877C303.061 84.7883 307.478 85.1413 294.092 90.8877C283.017 98.4199 265 115.792 265 145C265 208.254 303.5 191 303.5 191C303.5 191 379 98.4999 330.5 84.4999C282 70.4999 330.5 44.5222 265 35.9999C249.753 34.0162 239.058 33.552 232.428 33.6227C221.68 35.5142 220.809 33.7467 232.428 33.6227C241.891 31.9574 259.01 27.456 282 16.4999C346 -14.0001 382.5 9.49994 349.5 55.4999C316.5 101.5 394.5 57.9999 386 101.5C377.5 145 443.5 169.5 410.5 203.5C377.5 237.5 366.5 273.5 366.5 273.5C366.5 273.5 392.5 261.5 410.5 237.5C418.311 227.086 421.367 220.203 422.324 215.747C421.573 211.163 421.25 208.254 421.25 208.254L432 179.007C432 179.007 432 145 444.5 145C456.209 145 471.427 147.632 489.333 135.638C495.953 130.653 498.6 128.692 493 133C491.765 133.95 490.543 134.827 489.333 135.638C472.902 148.01 432 179.007 432 179.007L421.25 208.254C421.25 208.254 423.573 209.935 422.324 215.747C425.904 237.593 439.197 297.456 473.5 261.5C515 218 444.5 305 444.5 305C444.5 305 432 300 432 344C432 388 495.5 387 512.5 414.5C529.5 442 512.5 344 512.5 344L493 317.5C493 317.5 559.5 378.5 544 414.5C528.5 450.5 552 443 544 472.5C536 502 544 528.5 544 528.5H2.5V502Z" fill="#9B3232"/>
<path d="M432 179.007C432 179.007 432 145 444.5 145C457 145 473.5 148 493 133C512.5 118 432 179.007 432 179.007ZM432 179.007L421.25 208.254M421.25 208.254C421.25 208.254 428.5 213.5 410.5 237.5C392.5 261.5 366.5 273.5 366.5 273.5C366.5 273.5 377.5 237.5 410.5 203.5C443.5 169.5 377.5 145 386 101.5C394.5 57.9999 316.5 101.5 349.5 55.4999C382.5 9.49994 346 -14.0001 282 16.4999C218 46.9999 199.5 27.4777 265 35.9999C330.5 44.5222 282 70.4999 330.5 84.4999C379 98.4999 303.5 191 303.5 191C303.5 191 265 208.254 265 145C265 81.7462 349.5 73.9999 265 101.5C180.5 129 226 167 226 167C226 167 193.5 117.5 265 220.5C336.5 323.5 194.5 344 194.5 344C194.5 344 162 329 175 305C188 281 158 209.5 175 203.5C192 197.5 148.5 145 148.5 145C148.5 145 80.5 124 112 101.5C143.5 78.9999 210.113 26.4999 141 55.4999C71.8869 84.4999 141 16.4999 141 16.4999C141 16.4999 81 37.9999 80.5 55.4999C80 72.9999 51.5 121 66 133C80.5 145 112 203.5 112 203.5V261.5C95 286 66 317.5 66 317.5L27 388L2.5 502V528.5H544C544 528.5 536 502 544 472.5C552 443 528.5 450.5 544 414.5C559.5 378.5 493 317.5 493 317.5L512.5 344C512.5 344 529.5 442 512.5 414.5C495.5 387 432 388 432 344C432 300 444.5 305 444.5 305C444.5 305 515 218 473.5 261.5C432 305 421.25 208.254 421.25 208.254Z" stroke="#9B3232" stroke-width="5"/>
<path d="M85 140.5L114 185L116.5 182.5L97 140.5L91.5 97.5L102 69L114 37L85 55.5L80 106L85 140.5Z" fill="#DF861E"/>
<path d="M157 262.5L151 198L166.5 254.5L151 285.5L140 351.5L97 432L52 451.5V405.5L102 326.5L157 262.5Z" fill="#DF861E"/>
<path d="M78.5 469.5L52 526.5H525V441L497.5 485L483 432L461.5 412.5H389.5L295.5 451.5L266 432L352.5 384L404.5 293.5L389.5 285.5L335.5 298.5L303 254.5L316 317L241.5 360.5L166.5 441L177.5 405.5L157 351.5L131.5 432L78.5 469.5Z" fill="#DF861E"/>
<path d="M364 158L335.5 217L331.5 221L335.5 232.5H364L397.5 190.5L389.5 146.5L364 118V158Z" fill="#DF861E"/>
<path d="M231.5 153L253 182.5V118L231.5 153Z" fill="#DF861E"/>
<path d="M309 31.5L316 55.5L352.5 37L335.5 12.5L284.5 31.5H309Z" fill="#DF861E"/>
<path d="M445.5 146.5L438.5 158L461.5 153L445.5 146.5Z" fill="#DF861E"/>
<path d="M415 245.5L427 285.5L456.5 277L433 273L415 245.5Z" fill="#DF861E"/>
<path d="M518.5 360.5L525 412.5L536 393L518.5 360.5Z" fill="#DF861E"/>
<path d="M85 140.5L114 185L116.5 182.5L97 140.5L91.5 97.5L102 69L114 37L85 55.5L80 106L85 140.5Z" stroke="#9B3232" stroke-width="5"/>
<path d="M157 262.5L151 198L166.5 254.5L151 285.5L140 351.5L97 432L52 451.5V405.5L102 326.5L157 262.5Z" stroke="#9B3232" stroke-width="5"/>
<path d="M78.5 469.5L52 526.5H525V441L497.5 485L483 432L461.5 412.5H389.5L295.5 451.5L266 432L352.5 384L404.5 293.5L389.5 285.5L335.5 298.5L303 254.5L316 317L241.5 360.5L166.5 441L177.5 405.5L157 351.5L131.5 432L78.5 469.5Z" stroke="#9B3232" stroke-width="5"/>
<path d="M364 158L335.5 217L331.5 221L335.5 232.5H364L397.5 190.5L389.5 146.5L364 118V158Z" stroke="#9B3232" stroke-width="5"/>
<path d="M231.5 153L253 182.5V118L231.5 153Z" stroke="#9B3232" stroke-width="5"/>
<path d="M309 31.5L316 55.5L352.5 37L335.5 12.5L284.5 31.5H309Z" stroke="#9B3232" stroke-width="5"/>
<path d="M445.5 146.5L438.5 158L461.5 153L445.5 146.5Z" stroke="#9B3232" stroke-width="5"/>
<path d="M415 245.5L427 285.5L456.5 277L433 273L415 245.5Z" stroke="#9B3232" stroke-width="5"/>
<path d="M518.5 360.5L525 412.5L536 393L518.5 360.5Z" stroke="#9B3232" stroke-width="5"/>
<path d="M194.028 470.442L209.335 531H490.602L496.343 495.466L451.856 502.472L408.327 512.983L306.439 522.992L360.492 470.442L271.52 512.983L231.817 460.932L279.173 366.842L194.028 470.442Z" fill="#D8C40E"/>
<path d="M137 482.453L147.628 426.399L155.282 502.472L194.028 531L155.282 512.983L93.0965 522.992L86.3996 512.983H137L147.628 495.466H93.0965L137 482.453Z" fill="#D8C40E"/>
<path d="M40 449.922V495.466L64.5 449.922L107.925 361.837L40 449.922Z" fill="#D8C40E"/>
<path d="M121.319 242.221L128.016 297.775L137 242.221V215L147.628 184.666L121.319 242.221Z" fill="#D8C40E"/>
<path d="M86.3996 118.602L121.319 161.143L95.5 118.602L128.016 74.0589L86.3996 118.602Z" fill="#D8C40E"/>
<path d="M337 282L298.785 329.305L318.876 315.292L340.402 337.313L349.969 287.765L318.876 242.221L360.492 155.137L298.785 227.207L239.47 161.143L303.5 257.5L337 282Z" fill="#D8C40E"/>
<path d="M337 37.5237L318.876 67.0522L340.402 37.5237L325 15.5L271.52 30.5169L306.439 22.5092L337 37.5237Z" fill="#D8C40E"/>
<path d="M367.189 343.319L393.498 431.904V387.361L433.201 416.389L378.669 351L393.498 263.242L367.189 343.319Z" fill="#D8C40E"/>
<path d="M490.602 431.904L460.467 460.932H474.817L482.47 482.453L496.343 437.91L526 426.399L517.39 387.361V416.389L490.602 431.904Z" fill="#D8C40E"/>
<path d="M408.327 242.221V295.272L454.248 275.253L414.545 287.765L408.327 242.221Z" fill="#D8C40E"/>
<path d="M434.158 160.142L426.982 172.654L454.248 150.633L434.158 160.142Z" fill="#D8C40E"/>
<path d="M383.931 150.633L378.669 207.187L402.587 195.176L383.931 150.633Z" fill="#D8C40E"/>
<path d="M256.691 108.592L228.947 133.116L265.78 113.097L256.691 108.592Z" fill="#D8C40E"/>
<path d="M349.969 101.5L343.75 137.12L369.581 94.0783L349.969 101.5Z" fill="#D8C40E"/>
<path d="M187.331 343.319V387.361L209.335 366.842L187.331 343.319Z" fill="#D8C40E"/>
<path d="M194.028 234.214L209.335 263.242L194.028 207.187V234.214Z" fill="#D8C40E"/>
<path d="M474.817 227.207L482.47 242.221L490.602 207.187L474.817 227.207Z" fill="#D8C40E"/>
<path d="M442.289 337.313L460.467 366.842L456.161 309.286L442.289 337.313Z" fill="#D8C40E"/>
<path d="M194.028 470.442L209.335 531H490.602L496.343 495.466L451.856 502.472L408.327 512.983L306.439 522.992L360.492 470.442L271.52 512.983L231.817 460.932L279.173 366.842L194.028 470.442Z" stroke="#D8C40E" stroke-width="5"/>
<path d="M137 482.453L147.628 426.399L155.282 502.472L194.028 531L155.282 512.983L93.0965 522.992L86.3996 512.983H137L147.628 495.466H93.0965L137 482.453Z" stroke="#D8C40E" stroke-width="5"/>
<path d="M40 449.922V495.466L64.5 449.922L107.925 361.837L40 449.922Z" stroke="#D8C40E" stroke-width="5"/>
<path d="M121.319 242.221L128.016 297.775L137 242.221V215L147.628 184.666L121.319 242.221Z" stroke="#D8C40E" stroke-width="5"/>
<path d="M86.3996 118.602L121.319 161.143L95.5 118.602L128.016 74.0589L86.3996 118.602Z" stroke="#D8C40E" stroke-width="5"/>
<path d="M337 282L298.785 329.305L318.876 315.292L340.402 337.313L349.969 287.765L318.876 242.221L360.492 155.137L298.785 227.207L239.47 161.143L303.5 257.5L337 282Z" stroke="#D8C40E" stroke-width="5"/>
<path d="M337 37.5237L318.876 67.0522L340.402 37.5237L325 15.5L271.52 30.5169L306.439 22.5092L337 37.5237Z" stroke="#D8C40E" stroke-width="5"/>
<path d="M367.189 343.319L393.498 431.904V387.361L433.201 416.389L378.669 351L393.498 263.242L367.189 343.319Z" stroke="#D8C40E" stroke-width="5"/>
<path d="M490.602 431.904L460.467 460.932H474.817L482.47 482.453L496.343 437.91L526 426.399L517.39 387.361V416.389L490.602 431.904Z" stroke="#D8C40E" stroke-width="5"/>
<path d="M408.327 242.221V295.272L454.248 275.253L414.545 287.765L408.327 242.221Z" stroke="#D8C40E" stroke-width="5"/>
<path d="M434.158 160.142L426.982 172.654L454.248 150.633L434.158 160.142Z" stroke="#D8C40E" stroke-width="5"/>
<path d="M383.931 150.633L378.669 207.187L402.587 195.176L383.931 150.633Z" stroke="#D8C40E" stroke-width="5"/>
<path d="M256.691 108.592L228.947 133.116L265.78 113.097L256.691 108.592Z" stroke="#D8C40E" stroke-width="5"/>
<path d="M349.969 101.5L343.75 137.12L369.581 94.0783L349.969 101.5Z" stroke="#D8C40E" stroke-width="5"/>
<path d="M187.331 343.319V387.361L209.335 366.842L187.331 343.319Z" stroke="#D8C40E" stroke-width="5"/>
<path d="M194.028 234.214L209.335 263.242L194.028 207.187V234.214Z" stroke="#D8C40E" stroke-width="5"/>
<path d="M474.817 227.207L482.47 242.221L490.602 207.187L474.817 227.207Z" stroke="#D8C40E" stroke-width="5"/>
<path d="M442.289 337.313L460.467 366.842L456.161 309.286L442.289 337.313Z" stroke="#D8C40E" stroke-width="5"/>
</svg>
