<svg width="401" height="404" viewBox="0 0 401 404" fill="none" xmlns="http://www.w3.org/2000/svg">
<path d="M400.469 204C400.469 314.457 310.926 404 200.469 404C90.0123 404 0.469238 314.457 0.469238 204C0.469238 93.543 90.0123 4 200.469 4C310.926 4 400.469 93.543 400.469 204Z" fill="#BCBCBC"/>
<path d="M400.469 204C400.469 314.457 310.926 404 200.469 404C90.0123 404 0.469238 314.457 0.469238 204C0.469238 93.543 90.0123 4 200.469 4C310.926 4 400.469 93.543 400.469 204Z" fill="#BCBCBC"/>
<path d="M300 150C300 232.843 232.843 300 150 300C67.1573 300 0 232.843 0 150C0 67.1573 67.1573 0 150 0C232.843 0 300 67.1573 300 150Z" fill="#BCBCBC"/>
<path d="M300 150C300 232.843 232.843 300 150 300C67.1573 300 0 232.843 0 150C0 67.1573 67.1573 0 150 0C232.843 0 300 67.1573 300 150Z" fill="#CCCCCC"/>
<path d="M200.469 104C200.469 159.228 155.698 204 100.469 204C45.2408 204 0.469238 159.228 0.469238 104C0.469238 48.7715 45.2408 4 100.469 4C155.698 4 200.469 48.7715 200.469 104Z" fill="#BCBCBC"/>
<path d="M200.469 104C200.469 159.228 155.698 204 100.469 204C45.2408 204 0.469238 159.228 0.469238 104C0.469238 48.7715 45.2408 4 100.469 4C155.698 4 200.469 48.7715 200.469 104Z" fill="#888888"/>
<path d="M100.469 54C100.469 81.6142 78.0835 104 50.4692 104C22.855 104 0.469238 81.6142 0.469238 54C0.469238 26.3858 22.855 4 50.4692 4C78.0835 4 100.469 26.3858 100.469 54Z" fill="#BCBCBC"/>
<path d="M100.469 54C100.469 81.6142 78.0835 104 50.4692 104C22.855 104 0.469238 81.6142 0.469238 54C0.469238 26.3858 22.855 4 50.4692 4C78.0835 4 100.469 26.3858 100.469 54Z" fill="#D6D6D6"/>
<path d="M50.4692 29C50.4692 42.8071 39.2764 54 25.4692 54C11.6621 54 0.469238 42.8071 0.469238 29C0.469238 15.1929 11.6621 4 25.4692 4C39.2764 4 50.4692 15.1929 50.4692 29Z" fill="#BCBCBC"/>
<path d="M50.4692 29C50.4692 42.8071 39.2764 54 25.4692 54C11.6621 54 0.469238 42.8071 0.469238 29C0.469238 15.1929 11.6621 4 25.4692 4C39.2764 4 50.4692 15.1929 50.4692 29Z" fill="#626262"/>
<path d="M83.5 186.5C41.1 188.1 18.1667 138.167 12 113C40.4 148.2 86.1667 127.667 106 113H147V162C143.5 169.5 125.9 184.9 83.5 186.5Z" fill="#BCBCBC" stroke="#888888" stroke-width="5"/>
<path d="M40.8963 88.9847C20.7956 89.6374 9.92346 69.2669 7 59C20.4637 73.36 42.1605 64.9833 51.563 59L75 55.5L71 78.9898C69.3407 82.0494 60.997 88.332 40.8963 88.9847Z" fill="#888888" stroke="#888888" stroke-width="5"/>
<path d="M24.4619 42.9909C17.0719 43.3805 10.5748 39.1295 9.5 33C14.4499 41.5731 24.9267 28.6617 28.3834 25.0896L35 20L39.5 36C38.89 37.8267 31.8519 42.6012 24.4619 42.9909Z" fill="#D9D9D9" stroke="#D9D9D9" stroke-width="5"/>
<path d="M153.5 284C92.4731 287.942 24.3667 223.629 14.5 188.646C56.7916 236.782 164.5 224.5 182.434 188.649L241.506 187.003L241.506 248C236.756 258.64 214.527 280.058 153.5 284Z" fill="#626262" stroke="#626262" stroke-width="5"/>
<path d="M211 386.5C117.768 396.284 35.583 303.805 23 261C77.0958 319.854 192.5 354 242.5 289L324.779 273.727L324.682 348.392C307 354 292 378 211 386.5Z" fill="#FFFDEF" stroke="#CFCFCF" stroke-width="5"/>
</svg>
