<svg width="557" height="372" viewBox="0 0 557 372" fill="none" xmlns="http://www.w3.org/2000/svg">
<path d="M103.234 186.5L40.7344 127.5C-3.59898 138.167 -45.3656 141.9 142.234 71.5C242.956 33.7024 283.167 44.609 297.217 62.3811C314.659 6.56442 412.664 61.2926 461.734 97.5C481.901 132.833 531.192 268.1 517.992 242.5C504.792 216.9 413.234 150.5 366.734 176C348.068 205.167 333.934 255.8 378.734 291C434.734 335 471.234 270 451.234 291C431.234 312 347.492 276 374.492 212.5C396.092 161.7 488.659 232.167 517.992 271.5C523.659 308.333 521.634 368.5 451.234 368.5C380.834 368.5 365.568 349.167 366.734 339.5C353.068 347.667 321.434 364.9 304.234 368.5C287.034 372.1 268.068 335.667 260.734 317C250.068 322.5 214.534 330.2 157.734 317C100.934 303.8 97.7344 224.5 103.234 186.5Z" fill="#A5DCF3"/>
<path d="M40.7344 127.5L103.234 186.5C97.7344 224.5 100.934 303.8 157.734 317C214.534 330.2 250.068 322.5 260.734 317C268.068 335.667 287.034 372.1 304.234 368.5C321.434 364.9 353.068 347.667 366.734 339.5C365.568 349.167 380.834 368.5 451.234 368.5C521.634 368.5 523.659 308.333 517.992 271.5C488.659 232.167 396.092 161.7 374.492 212.5C347.492 276 431.234 312 451.234 291C471.234 270 434.734 335 378.734 291C333.934 255.8 348.068 205.167 366.734 176C413.234 150.5 504.792 216.9 517.992 242.5C531.192 268.1 481.901 132.833 461.734 97.5C410.234 59.5 304.834 1.09996 295.234 71.5C283.234 159.5 376.734 -16.5 142.234 71.5C-45.3656 141.9 -3.59898 138.167 40.7344 127.5Z" stroke="#A5DCF3" stroke-width="5"/>
<path d="M276.234 69C259.834 55.4 156.235 74.6667 132.235 86C122.068 111.833 159.075 105.767 292.735 138.5C439.734 174.5 459.235 172.5 459.235 152.5C451.735 122 411.935 73.4 388.735 69C365.535 64.6001 318.068 78.5 315.734 86C309.401 86 292.634 82.6 276.234 69Z" fill="white" stroke="white" stroke-width="5"/>
<path d="M101.234 173L15.2344 132C15.2344 132 106.234 117.5 130.234 132C154.234 146.5 130.234 147 178.734 150.5C227.234 154 227.234 178 227.234 194C227.234 210 319.234 205 315.234 230.5C311.234 256 335.234 296 372.734 306.5C410.234 317 449.234 327.5 460.234 317C471.234 306.5 460.234 285 460.234 273C460.234 261 424.234 266.5 410.234 261C396.234 255.5 398.734 220 424.234 230.5C449.734 241 433.234 234 449.734 241C466.234 248 496.734 280 499.734 298.5C502.734 317 483.234 336.5 471.234 345.5C459.234 354.5 372.734 336.5 372.734 336.5C372.734 336.5 295.234 326 284.734 291C274.234 256 234.234 273 227.234 291C220.234 309 178.734 298.5 157.734 273C136.734 247.5 130.234 230.5 130.234 230.5L101.234 173Z" fill="#6BC8EA" stroke="#6BC8EA" stroke-width="5"/>
<path d="M367.828 92.4201L351.363 62.9201C327.019 67.8618 256.305 72.3254 359.317 39.7104C386.161 31.2111 403.854 26.8196 415.103 24.8233C412.96 22.3466 411.834 18.2853 412.863 11.92C418.134 -20.695 482.584 45.3154 510.863 62.9201C517.038 72.0487 529.776 89.1453 538.579 100.427C542.347 103.578 545.224 106.739 546.863 109.42C550.069 114.666 545.562 109.376 538.579 100.427C525.681 89.6417 502.352 78.9804 482.591 88.1234C472.341 101.636 464.763 119.613 489.363 135.92C501.369 143.879 511.716 144.975 519.214 143.933C501.288 143.446 470.577 126.258 482.591 102.42C494.451 78.8853 530.756 96.1976 546.863 114.42C549.974 131.484 567.647 177.305 528.99 177.305C490.333 177.305 481.95 168.348 482.591 163.87C475.086 167.653 452.774 162.202 443.33 163.87C433.885 165.538 428.412 162.094 424.386 153.446C418.529 155.994 436.552 147.516 405.363 141.401C374.174 135.285 364.808 110.025 367.828 92.4201Z" fill="#57B7E0" fill-opacity="0.65"/>
<path d="M351.363 62.9201L367.828 92.4201C364.808 110.025 374.174 135.285 405.363 141.401C436.552 147.516 418.529 155.994 424.386 153.446C428.412 162.094 433.885 165.538 443.33 163.87C452.774 162.202 475.086 167.653 482.591 163.87C481.95 168.348 490.333 177.305 528.99 177.305C567.647 177.305 549.974 131.484 546.863 114.42C530.756 96.1976 494.451 78.8853 482.591 102.42C467.765 131.838 518.008 151.13 528.99 141.401C539.972 131.672 520.113 156.304 489.363 135.92C464.763 119.613 472.341 101.636 482.591 88.1234C508.124 76.3097 539.615 97.56 546.863 109.42C554.111 121.28 521.936 79.2894 510.863 62.9201C482.584 45.3154 418.134 -20.695 412.863 11.92C406.274 52.6888 488.082 -1.05836 359.317 39.7104C256.305 72.3254 327.019 67.8618 351.363 62.9201Z" stroke="#7CCBED" stroke-opacity="0.54" stroke-width="5"/>
</svg>
