<svg width="595" height="727" viewBox="0 0 595 727" fill="none" xmlns="http://www.w3.org/2000/svg">
<path d="M99.5 533L7 666.5L3.5 713L181.5 723.5L578 705.5L591.5 622L530.5 604.5L555 564L517 485L530.5 543.5L517 588L463.5 617L509 521L436 604.5L426.5 533L478.5 441L555 485L478.5 409L397.5 533L426.5 429L469.5 322V332.5H517L546 300.5L478.5 241L517 300.5L445 312.5L397.5 253L478.5 202.5L509 132L494 33L339.5 2.5L469.5 50L478.5 149L349 241L322 181.5L330.5 132L390 85L312 115.5L292 202.5L264 181.5V83.5L245 195L349 265.5L426.5 343.5L397.5 397.5L358 564L264 511L322 588L164.5 622L127 564H164.5L228 475L382 355L181.5 452.5L164.5 521L99.5 475L264 332.5L36 132L154 355L36 485L99.5 533Z" fill="#FFE817" stroke="#FFE817" stroke-width="5"/>
<path d="M93.5 586.5L34.5 675L139 636L93.5 586.5Z" fill="#FFF491"/>
<path d="M338.5 595L172.5 629.5L229.5 666L338.5 595Z" fill="#FFF491"/>
<path d="M310.5 550L351 595L397.5 608L310.5 550Z" fill="#FFF491"/>
<path d="M481.5 550L435 621L453.5 629.5L481.5 550Z" fill="#FFF491"/>
<path d="M421 621L338.5 675L435 686.5L421 621Z" fill="#FFF491"/>
<path d="M481.5 666L556 686.5L569 636L500 608L481.5 666Z" fill="#FFF491"/>
<path d="M534.5 568L520.5 600.5L549.5 568L527 522L534.5 568Z" fill="#FFF491"/>
<path d="M416 588.5L397.5 568L416 540V588.5Z" fill="#FFF491"/>
<path d="M481.5 419.5L453.5 472L481.5 436.5L527 472L481.5 419.5Z" fill="#FFF491"/>
<path d="M397.5 409.5V494L453.5 338.5L397.5 409.5Z" fill="#FFF491"/>
<path d="M520.5 308.5L481.5 317L520.5 322.5L534.5 308.5L500 268.5L520.5 308.5Z" fill="#FFF491"/>
<path d="M356.5 241.5L403 308.5L383.5 254.5L475 168.5L356.5 241.5Z" fill="#FFF491"/>
<path d="M310.5 193L334 241.5L316.5 193L324.5 136L356.5 100.5L310.5 124V193Z" fill="#FFF491"/>
<path d="M256.5 193L297.5 221L262 186.5V100.5L256.5 193Z" fill="#FFF491"/>
<path d="M475 52L491.5 136L481.5 43.5L397.5 19.5L475 52Z" fill="#FFF491"/>
<path d="M187.5 466L172.5 540L202.5 472L310.5 394.5L187.5 466Z" fill="#FFF491"/>
<path d="M62.5 494L128 540L83 487.5L229.5 329L101 221L172.5 360L62.5 494Z" fill="#FFF491"/>
<path d="M93.5 586.5L34.5 675L139 636L93.5 586.5Z" stroke="#FFF491" stroke-width="5"/>
<path d="M338.5 595L172.5 629.5L229.5 666L338.5 595Z" stroke="#FFF491" stroke-width="5"/>
<path d="M310.5 550L351 595L397.5 608L310.5 550Z" stroke="#FFF491" stroke-width="5"/>
<path d="M481.5 550L435 621L453.5 629.5L481.5 550Z" stroke="#FFF491" stroke-width="5"/>
<path d="M421 621L338.5 675L435 686.5L421 621Z" stroke="#FFF491" stroke-width="5"/>
<path d="M481.5 666L556 686.5L569 636L500 608L481.5 666Z" stroke="#FFF491" stroke-width="5"/>
<path d="M534.5 568L520.5 600.5L549.5 568L527 522L534.5 568Z" stroke="#FFF491" stroke-width="5"/>
<path d="M416 588.5L397.5 568L416 540V588.5Z" stroke="#FFF491" stroke-width="5"/>
<path d="M481.5 419.5L453.5 472L481.5 436.5L527 472L481.5 419.5Z" stroke="#FFF491" stroke-width="5"/>
<path d="M397.5 409.5V494L453.5 338.5L397.5 409.5Z" stroke="#FFF491" stroke-width="5"/>
<path d="M520.5 308.5L481.5 317L520.5 322.5L534.5 308.5L500 268.5L520.5 308.5Z" stroke="#FFF491" stroke-width="5"/>
<path d="M356.5 241.5L403 308.5L383.5 254.5L475 168.5L356.5 241.5Z" stroke="#FFF491" stroke-width="5"/>
<path d="M310.5 193L334 241.5L316.5 193L324.5 136L356.5 100.5L310.5 124V193Z" stroke="#FFF491" stroke-width="5"/>
<path d="M256.5 193L297.5 221L262 186.5V100.5L256.5 193Z" stroke="#FFF491" stroke-width="5"/>
<path d="M475 52L491.5 136L481.5 43.5L397.5 19.5L475 52Z" stroke="#FFF491" stroke-width="5"/>
<path d="M187.5 466L172.5 540L202.5 472L310.5 394.5L187.5 466Z" stroke="#FFF491" stroke-width="5"/>
<path d="M62.5 494L128 540L83 487.5L229.5 329L101 221L172.5 360L62.5 494Z" stroke="#FFF491" stroke-width="5"/>
<path d="M105.5 577L114 647H170L105.5 577Z" fill="white"/>
<path d="M188 667.5L214 713L340.5 647L252.5 626L188 667.5Z" fill="white"/>
<path d="M83 667.5L114 704.5L160.5 693.5L83 667.5Z" fill="white"/>
<path d="M362 634L379 693.5L452.5 667.5L362 634Z" fill="white"/>
<path d="M522 634L530.5 693.5L578 667.5L522 634Z" fill="white"/>
<path d="M480 667.5L445.5 713H501.5L480 667.5Z" fill="white"/>
<path d="M340.5 563.5L379 614L407.5 563.5L379 587.5L340.5 563.5Z" fill="white"/>
<path d="M501.5 535L445.5 626L441 651L501.5 535Z" fill="white"/>
<path d="M539 556.5L525 587.5L548 556.5L522 497.5L539 556.5Z" fill="white"/>
<path d="M430.356 497.923L417.5 520.5H415.5L430.356 497.923L479 412.5L553 482L479 424L430.356 497.923Z" fill="white"/>
<path d="M444.5 324.5L373.5 556.5L437.5 389.5L444.5 324.5Z" fill="white"/>
<path d="M516 303.5L455 320L527.5 307L475.5 241.5L516 303.5Z" fill="white"/>
<path d="M372 252.5L438.5 320L383 252.5L475.5 202L487 171L372 252.5Z" fill="white"/>
<path d="M263.5 197.5L354 249L319.5 219L316 128.5L386 85.5L311.5 123V216.5L267 191.5L263.5 85.5V197.5Z" fill="white"/>
<path d="M470.5 53L485 167L478 49.5L343.5 5.5L470.5 53Z" fill="white"/>
<path d="M160.5 548L108.5 563.5L160.5 541L195 474L369.5 365.5L220 467.5L160.5 548Z" fill="white"/>
<path d="M119 541L108.5 560L124.5 541L85.5 483.5L247 331L58 163.5L220 339L74.5 483.5L119 541Z" fill="white"/>
<path d="M114 647L105.5 577L170 647H105.5H114ZM214 713L188 667.5L252.5 626L340.5 647L214 713ZM114 704.5L83 667.5L160.5 693.5L114 704.5ZM379 693.5L362 634L452.5 667.5L379 693.5ZM530.5 693.5L522 634L578 667.5L530.5 693.5ZM445.5 713L480 667.5L501.5 713H445.5ZM379 614L340.5 563.5L379 587.5L407.5 563.5L379 614ZM445.5 626L501.5 535L441 651L445.5 626ZM525 587.5L539 556.5L522 497.5L548 556.5L525 587.5ZM417.5 520.5L479 412.5L553 482L479 424L415.5 520.5H417.5ZM373.5 556.5L444.5 324.5L437.5 389.5L373.5 556.5ZM455 320L516 303.5L475.5 241.5L527.5 307L455 320ZM438.5 320L372 252.5L487 171L475.5 202L383 252.5L438.5 320ZM354 249L263.5 197.5V85.5L267 191.5L311.5 216.5V123L386 85.5L316 128.5L319.5 219L354 249ZM485 167L470.5 53L343.5 5.5L478 49.5L485 167ZM108.5 563.5L160.5 548L220 467.5L369.5 365.5L195 474L160.5 541L108.5 563.5ZM108.5 560L119 541L74.5 483.5L220 339L58 163.5L247 331L85.5 483.5L124.5 541L108.5 560Z" stroke="white" stroke-width="5"/>
</svg>
